<svg xmlns="http://www.w3.org/2000/svg" width="232.323" height="230.607" viewBox="0 0 232.323 230.607"><defs><style>.a{fill:#f3f6e4;}.b{fill:none;stroke:#000;stroke-linecap:round;stroke-linejoin:round;stroke-width:8px;}</style></defs><g transform="translate(-485.083 -364.336) rotate(-8)"><g transform="translate(425.668 456.684)"><path class="a" d="M170.366,80.451a79.316,79.316,0,0,1-8.518,35.966A80.451,80.451,0,0,1,89.915,160.9a79.315,79.315,0,0,1-35.966-8.518L0,170.366l17.983-53.949A79.315,79.315,0,0,1,9.465,80.451,80.451,80.451,0,0,1,53.949,8.519,79.315,79.315,0,0,1,89.915,0h4.732a80.261,80.261,0,0,1,75.718,75.718Z" transform="translate(38.168 6.567) rotate(10)"/><path class="b" d="M170.366,80.451a79.316,79.316,0,0,1-8.518,35.966A80.451,80.451,0,0,1,89.915,160.9a79.315,79.315,0,0,1-35.966-8.518L0,170.366l17.983-53.949A79.315,79.315,0,0,1,9.465,80.451,80.451,80.451,0,0,1,53.949,8.519,79.315,79.315,0,0,1,89.915,0h4.732a80.261,80.261,0,0,1,75.718,75.718Z" transform="translate(29.584 0) rotate(10)"/></g></g></svg>