<svg xmlns="http://www.w3.org/2000/svg" width="222.881" height="211.328" viewBox="0 0 222.881 211.328"><defs><style>.a{fill:#f13131;}</style></defs><g transform="matrix(0.966, 0.259, -0.259, 0.966, 43.765, 0)"><path d="M0,138.89l9.761-20.664,7.039,3.325a8.185,8.185,0,0,0,6.846.255,9.163,9.163,0,0,0,5.017-5.483l9.18-22.745q3.391-8.507,11.3-11T66.4,84.5l-.488,1.033Q56.565,81.12,53.4,73.576t1.18-15.421L66.385,36.473q2.486-4.6,1.351-7.666a8.818,8.818,0,0,0-4.847-4.817l-7.039-3.325L65.612,0,76.491,5.139a26.047,26.047,0,0,1,10.881,9.112,23.53,23.53,0,0,1,3.9,13.125,30.976,30.976,0,0,1-4.29,15.214L75.17,64.273a10.8,10.8,0,0,0-1.153,8.573,9.445,9.445,0,0,0,5.232,5.992l16,7.558-9.761,20.664-16-7.558a9.567,9.567,0,0,0-7.916-.309q-3.95,1.565-5.924,6.409l-8.83,22.007a32.276,32.276,0,0,1-9.167,13.272A24.414,24.414,0,0,1,24.9,146.5a25.173,25.173,0,0,1-14.019-2.47Z" transform="translate(11.214 78.794) rotate(-52)"/><path class="a" d="M0,138.89l9.761-20.664,7.039,3.325a8.185,8.185,0,0,0,6.846.255,9.163,9.163,0,0,0,5.017-5.483l9.18-22.745q3.391-8.507,11.3-11T66.4,84.5l-.488,1.033Q56.565,81.12,53.4,73.576t1.18-15.421L66.385,36.473q2.486-4.6,1.351-7.666a8.818,8.818,0,0,0-4.847-4.817l-7.039-3.325L65.612,0,76.491,5.139a26.047,26.047,0,0,1,10.881,9.112,23.53,23.53,0,0,1,3.9,13.125,30.976,30.976,0,0,1-4.29,15.214L75.17,64.273a10.8,10.8,0,0,0-1.153,8.573,9.445,9.445,0,0,0,5.232,5.992l16,7.558-9.761,20.664-16-7.558a9.567,9.567,0,0,0-7.916-.309q-3.95,1.565-5.924,6.409l-8.83,22.007a32.276,32.276,0,0,1-9.167,13.272A24.414,24.414,0,0,1,24.9,146.5a25.173,25.173,0,0,1-14.019-2.47Z" transform="translate(0 75.056) rotate(-52)"/></g></svg>