<svg xmlns="http://www.w3.org/2000/svg" width="325.137" height="271.264" viewBox="0 0 325.137 271.264"><defs><style>.a{fill:#f13131;}</style></defs><g transform="matrix(0.588, 0.809, -0.809, 0.588, 851.982, -2961.42)"><path d="M2512.446-1203.12q-24.687-17.272-33.159-39.872t.532-47.549l11.237-31.143A69.007,69.007,0,0,1,2508.594-1349a69.624,69.624,0,0,1,27.817-15.923q16.178-4.956,35.64-3.377l-9.313,25.808a44.688,44.688,0,0,0-19.522,2.1,39.541,39.541,0,0,0-15.759,10.26,50.038,50.038,0,0,0-10.591,17.764l-11.237,31.143a48.425,48.425,0,0,0-3.038,20,39.672,39.672,0,0,0,5.607,17.873,44.652,44.652,0,0,0,13.687,14.078Z" transform="matrix(0.53, -0.848, 0.848, 0.53, 1839.395, 5222.298)"/><path class="a" d="M2512.446-1203.12q-24.687-17.272-33.159-39.872t.532-47.549l11.237-31.143A69.007,69.007,0,0,1,2508.594-1349a69.624,69.624,0,0,1,27.817-15.923q16.178-4.956,35.64-3.377l-9.313,25.808a44.688,44.688,0,0,0-19.522,2.1,39.541,39.541,0,0,0-15.759,10.26,50.038,50.038,0,0,0-10.591,17.764l-11.237,31.143a48.425,48.425,0,0,0-3.038,20,39.672,39.672,0,0,0,5.607,17.873,44.652,44.652,0,0,0,13.687,14.078Z" transform="matrix(0.53, -0.848, 0.848, 0.53, 1827.06, 5226.837)"/></g><g transform="matrix(0.588, 0.809, -0.809, 0.588, 851.982, -2961.42)"><path d="M2712.879-1158.15l9.438-26.153a44.645,44.645,0,0,0,19.521-2.1,39.692,39.692,0,0,0,15.729-10.173A48.468,48.468,0,0,0,2768-1213.906l11.238-31.143a50.072,50.072,0,0,0,3.192-20.434,40,40,0,0,0-5.49-17.927,43.9,43.9,0,0,0-13.772-14.109l9.314-25.809q16.153,11.276,25.355,25.388a70.032,70.032,0,0,1,11.154,29.986,69.035,69.035,0,0,1-3.945,32.219l-11.237,31.142q-9,24.95-29.954,36.933T2712.879-1158.15Z" transform="matrix(0.53, -0.848, 0.848, 0.53, 1715.79, 5349.991)"/><path class="a" d="M2712.879-1158.15l9.438-26.153a44.645,44.645,0,0,0,19.521-2.1,39.692,39.692,0,0,0,15.729-10.173A48.468,48.468,0,0,0,2768-1213.906l11.238-31.143a50.072,50.072,0,0,0,3.192-20.434,40,40,0,0,0-5.49-17.927,43.9,43.9,0,0,0-13.772-14.109l9.314-25.809q16.153,11.276,25.355,25.388a70.032,70.032,0,0,1,11.154,29.986,69.035,69.035,0,0,1-3.945,32.219l-11.237,31.142q-9,24.95-29.954,36.933T2712.879-1158.15Z" transform="matrix(0.53, -0.848, 0.848, 0.53, 1703.455, 5354.531)"/></g></svg>