<svg xmlns="http://www.w3.org/2000/svg" width="44.526" height="44.843" viewBox="0 0 44.526 44.843"><defs><style>.a{fill:#f3f6e4;stroke:#303030;stroke-miterlimit:10;}</style></defs><g transform="translate(0.495 0.453)"><path class="a" d="M3379.6,969.5a9.346,9.346,0,0,1,4.509,2.386c2.3,2.268,4.566,4.574,6.85,6.86a.551.551,0,0,1,.169.428q-.005,8.079,0,16.157c0,.2-.031.31-.244.377-1.878.594-3.752,1.2-5.627,1.8a2.562,2.562,0,0,1-.254.054c-.167-.05-.258-.194-.37-.307q-13.776-13.753-27.546-27.512a1.654,1.654,0,0,1-.434-.473l.035-.043.051-.028a1.286,1.286,0,0,1,.483-.054h20.546a8.923,8.923,0,0,1,1.389.154A1.711,1.711,0,0,1,3379.6,969.5Z" transform="translate(-3347.602 -960.151)"/><path class="a" d="M3357.546,971.948c.14.03.207.151.3.241q13.883,13.859,27.761,27.722a.73.73,0,0,1,.227.271,3.532,3.532,0,0,1-.28,1.059c-.529,1.726-1.078,3.445-1.61,5.17a.3.3,0,0,1-.342.246q-7.939-.033-15.878-.053a.441.441,0,0,1-.349-.124c-2.433-2.426-4.887-4.831-7.3-7.278a9.8,9.8,0,0,1-2.21-4.072c-.032-.1-.071-.2-.106-.306l.037-.031a.5.5,0,0,1,.378.04q5.045,1.789,10.1,3.555,4.022,1.413,8.042,2.83c1.218.427,2.438.848,3.649,1.294a.668.668,0,0,0,.535-.009c1.622-.729,3.257-1.43,4.875-2.168.264-.12.263-.137.057-.354-.067-.071-.138-.138-.207-.207q-13.685-13.667-27.366-27.336C3357.72,972.3,3357.494,972.207,3357.546,971.948Z" transform="translate(-3348.426 -962.767)"/><path class="a" d="M3379.117,840.395a11.788,11.788,0,0,0-2.865-.253q-9.833.01-19.666.006c-.135,0-.285-.052-.4.064h-.045c-.01-.2.18-.228.293-.3q6.274-4.148,12.554-8.285a2.5,2.5,0,0,1,3.253.04,5.494,5.494,0,0,1,.767.651q2.39,2.368,4.783,4.734a1.12,1.12,0,0,1,.285.46c.288.861.587,1.717.881,2.576A.613.613,0,0,0,3379.117,840.395Z" transform="translate(-3347.116 -831.043)"/><path class="a" d="M3226.695,971.761a.185.185,0,0,0,.045,0l0,0a1.654,1.654,0,0,1,.105.732q0,9.556,0,19.112a13.054,13.054,0,0,0,.2,2.619.436.436,0,0,1-.044.4l-.006.02c-.968-.345-1.936-.692-2.906-1.033a.961.961,0,0,1-.378-.237q-2.406-2.426-4.817-4.847a4.379,4.379,0,0,1-1.061-1.617,2.2,2.2,0,0,1,.247-2.147c1.406-2.043,2.749-4.129,4.117-6.2l4.3-6.5C3226.575,971.966,3226.633,971.862,3226.695,971.761Z" transform="translate(-3217.673 -962.592)"/><path class="a" d="M3356.8,994.673a44.678,44.678,0,0,1-.255-7.633c-.031-5.077-.01-10.155-.011-15.233a.1.1,0,0,1,.05.009c.039.16.174.245.28.35q13.807,13.792,27.617,27.582c.069.069.135.142.208.206.136.121.088.19-.056.253q-2.552,1.126-5.1,2.256a.629.629,0,0,1-.5.02q-2.688-.957-5.379-1.9-4.814-1.7-9.628-3.4c-1.753-.617-3.511-1.223-5.265-1.836C3358.109,995.115,3357.467,994.858,3356.8,994.673Z" transform="translate(-3347.463 -962.635)"/></g></svg>