<svg xmlns="http://www.w3.org/2000/svg" width="1027.174" height="842.001" viewBox="0 0 1027.174 842.001"><defs><style>.a{fill:#303030;}.b{fill:#f13131;}</style></defs><g transform="matrix(0.927, -0.375, 0.375, 0.927, -2228.474, 2048.074)"><path class="a" d="M2981.384-291.673l-259.63-117.4v-80.711l259.63-117.962v76.761L2825.6-462.692a161.16,161.16,0,0,1-23.7,8.467,188.285,188.285,0,0,1-19.755,4.515q7.329,1.137,19.755,4.233a141.516,141.516,0,0,1,23.7,8.185L2981.384-369Z" transform="translate(0 0.801)"/><path class="a" d="M3020.132-201.131l194.724-530.55h87.484l-194.722,530.55Z" transform="translate(1.929)"/><path class="a" d="M3329.037-291.673v-76.761l155.777-68.293a160.212,160.212,0,0,1,23.706-8.466,189.561,189.561,0,0,1,19.755-4.516q-7.343-1.123-19.755-4.233a140.113,140.113,0,0,1-23.706-8.184l-155.777-68.295v-77.324l259.63,117.4v80.711Z" transform="translate(3.925 0.801)"/></g><g transform="matrix(0.927, -0.375, 0.375, 0.927, -2249.474, 2024.211)"><path class="b" d="M2981.384-291.673l-259.63-117.4v-80.711l259.63-117.962v76.761L2825.6-462.692a161.16,161.16,0,0,1-23.7,8.467,188.285,188.285,0,0,1-19.755,4.515q7.329,1.137,19.755,4.233a141.516,141.516,0,0,1,23.7,8.185L2981.384-369Z" transform="translate(0 0.801)"/><path class="b" d="M3020.132-201.131l194.724-530.55h87.484l-194.722,530.55Z" transform="translate(1.929)"/><path class="b" d="M3329.037-291.673v-76.761l155.777-68.293a160.212,160.212,0,0,1,23.706-8.466,189.561,189.561,0,0,1,19.755-4.516q-7.343-1.123-19.755-4.233a140.113,140.113,0,0,1-23.706-8.184l-155.777-68.295v-77.324l259.63,117.4v80.711Z" transform="translate(3.925 0.801)"/></g><g transform="matrix(0.927, -0.375, 0.375, 0.927, -2249.474, 2024.211)"><path class="b" d="M2981.384-291.673l-259.63-117.4v-80.711l259.63-117.962v76.761L2825.6-462.692a161.16,161.16,0,0,1-23.7,8.467,188.285,188.285,0,0,1-19.755,4.515q7.329,1.137,19.755,4.233a141.516,141.516,0,0,1,23.7,8.185L2981.384-369Z" transform="translate(0 0.801)"/><path class="b" d="M3020.132-201.131l194.724-530.55h87.484l-194.722,530.55Z" transform="translate(1.929)"/><path class="b" d="M3329.037-291.673v-76.761l155.777-68.293a160.212,160.212,0,0,1,23.706-8.466,189.561,189.561,0,0,1,19.755-4.516q-7.343-1.123-19.755-4.233a140.113,140.113,0,0,1-23.706-8.184l-155.777-68.295v-77.324l259.63,117.4v80.711Z" transform="translate(3.925 0.801)"/></g></svg>