<svg xmlns="http://www.w3.org/2000/svg" width="527.346" height="367.348" viewBox="0 0 527.346 367.348"><defs><style>.a{fill:#303030;}.b{fill:#f13131;}</style></defs><g transform="translate(0 18.334) rotate(-3)"><path class="a" d="M35.542,267.387a47.7,47.7,0,0,1-20.29-17.425,45.781,45.781,0,0,1-7.216-25.392q.024-14.127,8.365-29.28l21.5-39.263q4.694-8.687,2.364-16.266A17.961,17.961,0,0,0,30.2,128.53L0,114.262,18.429,75.251l30.2,14.268a17.735,17.735,0,0,0,15.132.5q7.4-3.151,11-12.017L92.222,34.786q6.513-15.664,17.163-24.442A43.585,43.585,0,0,1,133.076.234Q146.119-1.1,159.411,5.176l20.539,9.7L161.52,53.889l-13.289-6.278q-6.769-3.2-12.717-1.236t-9.68,11.105L108.374,100.7q-6.277,15.783-20.953,20.266T54.862,117l.921-1.951q17.88,8.447,23.609,22.912t-2.611,29.613L54.62,208.231q-3.8,7.408-1.86,13.947a15.039,15.039,0,0,0,8.461,9.62l13.289,6.278L56.081,277.088Z" transform="translate(21.17 148.86) rotate(-52)"/><path class="b" d="M35.542,267.387a47.7,47.7,0,0,1-20.29-17.425,45.781,45.781,0,0,1-7.216-25.392q.024-14.127,8.365-29.28l21.5-39.263q4.694-8.687,2.364-16.266A17.961,17.961,0,0,0,30.2,128.53L0,114.262,18.429,75.251l30.2,14.268a17.735,17.735,0,0,0,15.132.5q7.4-3.151,11-12.017L92.222,34.786q6.513-15.664,17.163-24.442A43.585,43.585,0,0,1,133.076.234Q146.119-1.1,159.411,5.176l20.539,9.7L161.52,53.889l-13.289-6.278q-6.769-3.2-12.717-1.236t-9.68,11.105L108.374,100.7q-6.277,15.783-20.953,20.266T54.862,117l.921-1.951q17.88,8.447,23.609,22.912t-2.611,29.613L54.62,208.231q-3.8,7.408-1.86,13.947a15.039,15.039,0,0,0,8.461,9.62l13.289,6.278L56.081,277.088Z" transform="translate(0 141.802) rotate(-52)"/></g><g transform="translate(161.037 48.55) rotate(-3)"><path class="a" d="M0,262.211,18.429,223.2l13.289,6.278a15.452,15.452,0,0,0,12.925.482q6.4-2.6,9.471-10.351l17.33-42.939q6.4-16.06,21.337-20.766t32.57,3.628l-.921,1.951q-17.641-8.334-23.62-22.576t2.227-29.113l22.292-40.935q4.693-8.687,2.551-14.473t-9.151-9.094L105.44,39.011,123.869,0l20.538,9.7q13.287,6.276,20.542,17.2a44.423,44.423,0,0,1,7.359,24.778q.106,13.853-8.1,28.723l-22.294,40.935q-4.569,8.411-2.178,16.184a17.831,17.831,0,0,0,9.877,11.312l30.2,14.269-18.429,39.011-30.2-14.269a18.061,18.061,0,0,0-14.945-.584q-7.458,2.955-11.184,12.1l-16.67,41.546q-6.411,16.063-17.305,25.057A46.092,46.092,0,0,1,47,276.576a47.524,47.524,0,0,1-26.466-4.663Z" transform="translate(21.17 148.755) rotate(-52)"/><path class="b" d="M0,262.211,18.429,223.2l13.289,6.278a15.452,15.452,0,0,0,12.925.482q6.4-2.6,9.471-10.351l17.33-42.939q6.4-16.06,21.337-20.766t32.57,3.628l-.921,1.951q-17.641-8.334-23.62-22.576t2.227-29.113l22.292-40.935q4.693-8.687,2.551-14.473t-9.151-9.094L105.44,39.011,123.869,0l20.538,9.7q13.287,6.276,20.542,17.2a44.423,44.423,0,0,1,7.359,24.778q.106,13.853-8.1,28.723l-22.294,40.935q-4.569,8.411-2.178,16.184a17.831,17.831,0,0,0,9.877,11.312l30.2,14.269-18.429,39.011-30.2-14.269a18.061,18.061,0,0,0-14.945-.584q-7.458,2.955-11.184,12.1l-16.67,41.546q-6.411,16.063-17.305,25.057A46.092,46.092,0,0,1,47,276.576a47.524,47.524,0,0,1-26.466-4.663Z" transform="translate(0 141.698) rotate(-52)"/></g></svg>