<svg xmlns="http://www.w3.org/2000/svg" width="605.526" height="131" viewBox="0 0 605.526 131"><defs><style>.a{fill:#f3f6e4;font-size:20px;font-family:Montserrat-Regular, Montserrat;}.b,.c{fill:#f13131;}.b{font-size:25px;font-family:Montserrat-SemiBold, Montserrat;font-weight:600;}</style></defs><g transform="translate(88.526)"><text class="a" transform="translate(0 54)"><tspan x="0" y="0">I love thinking on other and original ideas that may </tspan><tspan x="0" y="24">get better results than expected, being dynamic is </tspan><tspan x="0" y="48">super important when programming fullweb </tspan><tspan x="0" y="72">aplications with a certain purpose.</tspan></text><text class="b" transform="translate(0 24)"><tspan x="0" y="0">Dynamic</tspan></text></g><g transform="translate(0 40)"><path class="c" d="M20.547,0a6.3,6.3,0,0,0-6.1,4.741c-.079,0-.138-.02-.217-.02A6.314,6.314,0,0,0,7.9,11.016a5.777,5.777,0,0,0,.168,1.377A7.784,7.784,0,0,0,3.981,23.1a7.825,7.825,0,0,0,.9,14.065,7.178,7.178,0,0,0-.138,1.387,7.093,7.093,0,0,0,7.112,7.082,6.727,6.727,0,0,0,1.185-.118,7.1,7.1,0,0,0,13.83-2.243V6.3A6.314,6.314,0,0,0,20.547,0ZM56.9,29.9a7.822,7.822,0,0,0-3.981-6.8,7.714,7.714,0,0,0,.82-3.433,7.869,7.869,0,0,0-4.91-7.279,6.234,6.234,0,0,0-6.154-7.672c-.079,0-.148.02-.217.02A6.313,6.313,0,0,0,30.031,6.3V43.278a7.1,7.1,0,0,0,13.83,2.243,6.727,6.727,0,0,0,1.185.118,7.093,7.093,0,0,0,7.112-7.082,7.177,7.177,0,0,0-.138-1.387A7.869,7.869,0,0,0,56.9,29.9Z"/></g></svg>