<svg xmlns="http://www.w3.org/2000/svg" width="35.997" height="35.998" viewBox="0 0 35.997 35.998"><defs><style>.a{fill:#f3f6e4;}</style></defs><path class="a" d="M20.29.148A18,18,0,1,0,35.848,20.29,18,18,0,0,0,20.29.148ZM24,11.375a1.282,1.282,0,0,0-.889.375L16.427,18.43l-.46-.46L15,17c6.583-6.564,7.77-6.627,8.994-5.629ZM16.7,18.667l6.66-6.66a.93.93,0,1,1,1.27,1.354l-7.048,6.187Zm.495,1.041-1.65.357a.094.094,0,0,1-.085-.157l.967-.967.768.768Zm-4.2-.688,1.758-1.758,1.318,1.317-2.968.639a.111.111,0,0,1-.127-.058.108.108,0,0,1,.019-.139ZM7.524,28.106a.114.114,0,0,1-.1-.124.115.115,0,0,1,.033-.069h0l1.419-1.419,1.833,1.833-3.184-.22Zm3.637-1.884a.342.342,0,0,0-.175.384l.3,1.3a.187.187,0,0,1-.316.175h0l-1.4-1.4-.441-.442L14.77,20.6l2.73-.589,1.311,1.311a36.469,36.469,0,0,1-7.65,4.9Zm7.918-5.142h0l-1.258-1.258,7.048-6.187a1.428,1.428,0,0,0,.178-.19C24.822,15.461,22,18.311,19.079,21.08Zm5.485-9.69,0,0a2.733,2.733,0,0,1,3.688-4.026L25.833,9.781a.178.178,0,0,0,0,.253L27.7,11.9a2.725,2.725,0,0,1-3.139-.514Zm3.867,0a2.571,2.571,0,0,1-.406.327h0l-1.81-1.81,2.3-2.3a2.733,2.733,0,0,1-.081,3.783Zm-.15-2.316a.214.214,0,0,0-.079.235.624.624,0,0,1-.08.675.208.208,0,1,0,.319.265,1.036,1.036,0,0,0,.13-1.126.207.207,0,0,0-.291-.049Z" transform="translate(0 0)"/></svg>