<svg xmlns="http://www.w3.org/2000/svg" width="62.16" height="50.33" viewBox="0 0 62.16 50.33"><defs><style>.a{fill:#f13131;}</style></defs><path class="a" d="M62.16,25.951V24.379a1.563,1.563,0,0,0-1.554-1.573H33.411V18.874H40.4a3.127,3.127,0,0,0,3.108-3.146V3.146A3.127,3.127,0,0,0,40.4,0H21.756a3.127,3.127,0,0,0-3.108,3.146V15.728a3.127,3.127,0,0,0,3.108,3.146h6.993v3.932H1.554A1.563,1.563,0,0,0,0,24.379v1.573a1.563,1.563,0,0,0,1.554,1.573h10.1v3.932H6.216A3.127,3.127,0,0,0,3.108,34.6V47.184A3.127,3.127,0,0,0,6.216,50.33h15.54a3.127,3.127,0,0,0,3.108-3.146V34.6a3.127,3.127,0,0,0-3.108-3.146H16.317V27.524H45.843v3.932H40.4A3.127,3.127,0,0,0,37.3,34.6V47.184A3.127,3.127,0,0,0,40.4,50.33h15.54a3.127,3.127,0,0,0,3.108-3.146V34.6a3.127,3.127,0,0,0-3.108-3.146H50.5V27.524h10.1A1.563,1.563,0,0,0,62.16,25.951Zm-37.3-13.369V6.291H37.3v6.291ZM18.648,44.039H9.324V37.747h9.324Zm34.188,0H43.512V37.747h9.324Z"/></svg>