<svg xmlns="http://www.w3.org/2000/svg" width="29.926" height="29.926" viewBox="0 0 29.926 29.926"><defs><style>.a{fill:#f3f6e4;}</style></defs><path class="a" d="M0,14.963V29.926H29.926V0H0Zm24.116-1.192a3.721,3.721,0,0,1,1.872,1.079,4.838,4.838,0,0,1,.717.96c.01.037-1.292.91-2.08,1.4-.029.019-.143-.1-.271-.294a1.7,1.7,0,0,0-1.406-.845c-.908-.062-1.491.413-1.486,1.206a1.1,1.1,0,0,0,.127.561c.2.413.571.661,1.733,1.163,2.143.923,3.06,1.53,3.63,2.394a4.344,4.344,0,0,1,.347,3.648,4.006,4.006,0,0,1-3.311,2.369,9.131,9.131,0,0,1-2.279-.022A5.5,5.5,0,0,1,18.664,25.8a5.271,5.271,0,0,1-.779-1.153,1.971,1.971,0,0,1,.274-.176c.135-.076.637-.367,1.112-.642l.86-.5.181.267a4.02,4.02,0,0,0,1.135,1.087,2.777,2.777,0,0,0,2.912-.147,1.3,1.3,0,0,0,.166-1.658c-.232-.332-.707-.611-2.056-1.2a7.4,7.4,0,0,1-2.817-1.733,3.946,3.946,0,0,1-.822-1.5,6.019,6.019,0,0,1-.052-1.909,3.646,3.646,0,0,1,3.069-2.84,7.574,7.574,0,0,1,2.271.066ZM17.091,15.02l.01,1.226H13.2V27.313H10.449V16.246H6.556v-1.2a11.959,11.959,0,0,1,.032-1.234c.015-.02,2.385-.03,5.258-.025l5.231.015Z"/></svg>