<svg xmlns="http://www.w3.org/2000/svg" width="70" height="68" viewBox="0 0 70 68"><defs><style>.a{fill:#f3f6e4;}</style></defs><path class="a" d="M23.413,55.316c0,.281-.325.506-.734.506-.466.042-.79-.183-.79-.506,0-.281.325-.506.734-.506C23.046,54.768,23.413,54.993,23.413,55.316Zm-4.389-.633c-.1.281.183.6.607.689a.663.663,0,0,0,.875-.281c.085-.281-.183-.6-.607-.731A.726.726,0,0,0,19.024,54.683Zm6.238-.239c-.409.1-.692.366-.649.689.042.281.409.464.833.366s.692-.366.649-.647S25.671,54.4,25.262,54.444ZM34.548.563C14.974.563,0,15.369,0,34.871A35.262,35.262,0,0,0,23.921,68.505c1.806.323,2.442-.787,2.442-1.7,0-.872-.042-5.681-.042-8.633,0,0-9.879,2.109-11.954-4.19,0,0-1.609-4.092-3.923-5.146,0,0-3.232-2.208.226-2.165A7.454,7.454,0,0,1,16.117,50.3c3.091,5.428,8.27,3.867,10.288,2.939A7.8,7.8,0,0,1,28.663,48.5c-7.889-.872-15.849-2.011-15.849-15.537,0-3.867,1.073-5.807,3.331-8.282a13.24,13.24,0,0,1,.367-9.547c2.95-.914,9.738,3.8,9.738,3.8a33.459,33.459,0,0,1,17.726,0s6.788-4.724,9.738-3.8a13.233,13.233,0,0,1,.367,9.547c2.258,2.489,3.641,4.429,3.641,8.282,0,13.569-8.312,14.652-16.2,15.537,1.3,1.111,2.4,3.22,2.4,6.524,0,4.739-.042,10.6-.042,11.755,0,.914.649,2.025,2.442,1.7C60.431,63.809,70,50.465,70,34.871,70,15.369,54.123.563,34.548.563Zm-20.831,48.5c-.183.141-.141.464.1.731.226.225.55.323.734.141.183-.141.141-.464-.1-.731C14.226,48.974,13.9,48.876,13.718,49.059ZM12.194,47.92c-.1.183.042.408.325.548a.421.421,0,0,0,.607-.1c.1-.183-.042-.408-.325-.548C12.518,47.737,12.292,47.779,12.194,47.92Zm4.573,5.006c-.226.183-.141.6.183.872.325.323.734.366.917.141.183-.183.1-.6-.183-.872C17.373,52.743,16.95,52.7,16.766,52.926Zm-1.609-2.067c-.226.141-.226.506,0,.83s.607.464.79.323a.64.64,0,0,0,0-.872C15.75,50.816,15.383,50.676,15.157,50.859Z" transform="translate(0 -0.563)"/></svg>