<svg xmlns="http://www.w3.org/2000/svg" width="35.171" height="31.293" viewBox="0 0 35.171 31.293"><defs><style>.a{fill:#f3f6e4;}</style></defs><path class="a" d="M17.586,14.5a3.135,3.135,0,1,0,3.135,3.135A3.135,3.135,0,0,0,17.586,14.5ZM8.8,23.867l-.692-.176C2.957,22.388,0,20.177,0,17.625s2.957-4.763,8.113-6.066l.692-.174L9,12.071a34.482,34.482,0,0,0,2,5.243l.148.312L11,17.939a34.155,34.155,0,0,0-2,5.243ZM7.792,13.162c-3.919,1.1-6.323,2.784-6.323,4.464s2.4,3.362,6.323,4.464a36.564,36.564,0,0,1,1.732-4.464,36.273,36.273,0,0,1-1.732-4.464ZM26.367,23.867l-.195-.687a34.229,34.229,0,0,0-2-5.242l-.148-.312.148-.312a34.321,34.321,0,0,0,2-5.243l.195-.686.693.174c5.154,1.3,8.111,3.514,8.111,6.067s-2.957,4.763-8.111,6.066Zm-.72-6.241a36.236,36.236,0,0,1,1.732,4.464c3.92-1.1,6.323-2.786,6.323-4.464s-2.4-3.362-6.323-4.464a36.325,36.325,0,0,1-1.732,4.464ZM7.782,13.154l-.195-.684C6.137,7.361,6.577,3.7,8.793,2.423c2.173-1.254,5.663.227,9.319,3.98l.5.511-.5.511a34.515,34.515,0,0,0-3.549,4.348l-.2.283-.344.029a34.669,34.669,0,0,0-5.547.894ZM10.56,3.438a2.045,2.045,0,0,0-1.033.254c-1.457.84-1.715,3.759-.711,7.7a36.815,36.815,0,0,1,4.738-.734,36.411,36.411,0,0,1,3.007-3.728c-2.286-2.226-4.451-3.489-6-3.489Zm14.052,29.84h0c-2.088,0-4.77-1.572-7.553-4.43l-.5-.511.5-.511a34.482,34.482,0,0,0,3.548-4.349l.2-.283.343-.029a34.629,34.629,0,0,0,5.55-.892l.692-.174.2.686c1.446,5.106,1.008,8.768-1.208,10.044a3.488,3.488,0,0,1-1.766.451Zm-6-4.955c2.286,2.226,4.451,3.489,6,3.489h0a2.039,2.039,0,0,0,1.032-.254c1.457-.84,1.716-3.76.711-7.7a36.664,36.664,0,0,1-4.739.734,36.158,36.158,0,0,1-3.006,3.73Zm8.78-15.169L26.7,12.98a34.407,34.407,0,0,0-5.55-.894l-.343-.029-.2-.283a34.312,34.312,0,0,0-3.548-4.348l-.5-.511.5-.511c3.655-3.752,7.143-5.233,9.319-3.98,2.216,1.278,2.655,4.939,1.208,10.046Zm-5.774-2.5a36.546,36.546,0,0,1,4.739.734c1.005-3.939.746-6.858-.711-7.7s-4.169.446-7.034,3.236a36.415,36.415,0,0,1,3.006,3.728ZM10.56,33.278a3.488,3.488,0,0,1-1.767-.451C6.577,31.55,6.137,27.889,7.587,22.782L7.78,22.1l.692.174a34.589,34.589,0,0,0,5.547.892l.344.029.2.283a34.579,34.579,0,0,0,3.549,4.349l.5.511-.5.511c-2.781,2.858-5.463,4.43-7.549,4.43ZM8.816,23.859c-1.005,3.939-.746,6.86.711,7.7s4.166-.447,7.034-3.236a36.634,36.634,0,0,1-3.007-3.73,36.6,36.6,0,0,1-4.738-.734Zm8.769.92c-1.206,0-2.446-.053-3.687-.155l-.344-.029-.2-.283Q12.3,22.8,11.378,21.2T9.669,17.938l-.147-.312.147-.312q.786-1.667,1.709-3.265c.607-1.049,1.273-2.1,1.978-3.11l.2-.283.344-.029a43.648,43.648,0,0,1,7.376,0l.343.029.2.283A43.972,43.972,0,0,1,25.5,17.313l.148.312-.148.312a43.378,43.378,0,0,1-3.689,6.375l-.2.283-.343.029C20.033,24.727,18.792,24.78,17.586,24.78Zm-3.22-1.589a42.563,42.563,0,0,0,6.441,0,42.507,42.507,0,0,0,3.218-5.566,41.89,41.89,0,0,0-3.22-5.566,42.544,42.544,0,0,0-6.439,0,41.732,41.732,0,0,0-3.22,5.566,42.666,42.666,0,0,0,3.22,5.566Z" transform="translate(0 -1.986)"/></svg>