<svg xmlns="http://www.w3.org/2000/svg" width="30.538" height="30.538" viewBox="0 0 30.538 30.538"><defs><style>.a{fill:#f3f6e4;}</style></defs><path class="a" d="M0,2.25V32.788H30.538V2.25ZM16.619,26.067c0,2.972-1.745,4.329-4.288,4.329a4.458,4.458,0,0,1-4.308-2.624l2.338-1.411c.45.8.859,1.472,1.847,1.472.941,0,1.541-.368,1.541-1.806V16.272h2.87ZM23.408,30.4a5.507,5.507,0,0,1-5.228-2.931l2.338-1.35a3.132,3.132,0,0,0,2.829,1.745c1.186,0,1.95-.593,1.95-1.418,0-.982-.777-1.329-2.093-1.909l-.716-.307c-2.072-.879-3.442-1.99-3.442-4.329,0-2.154,1.643-3.79,4.2-3.79a4.227,4.227,0,0,1,4.076,2.3l-2.236,1.431a1.952,1.952,0,0,0-1.847-1.227,1.246,1.246,0,0,0-1.37,1.227c0,.859.532,1.207,1.765,1.745l.716.307c2.44,1.043,3.81,2.113,3.81,4.513,0,2.577-2.031,3.995-4.751,3.995Z" transform="translate(0 -2.25)"/></svg>