<svg xmlns="http://www.w3.org/2000/svg" width="28.185" height="31.293" viewBox="0 0 28.185 31.293"><defs><style>.a{fill:#f3f6e4;}</style></defs><path class="a" d="M14.135,31.577a2.5,2.5,0,0,1-1.224-.323L9.019,28.988c-.58-.323-.3-.435-.107-.5a7.727,7.727,0,0,0,1.76-.789.288.288,0,0,1,.29.025l2.99,1.745a.37.37,0,0,0,.36,0l11.651-6.619a.366.366,0,0,0,.177-.31V9.3a.369.369,0,0,0-.183-.317L14.312,2.374a.37.37,0,0,0-.36,0L2.314,8.994a.361.361,0,0,0-.183.317V22.543a.342.342,0,0,0,.183.3L5.506,24.66C7.241,25.511,8.3,24.511,8.3,23.5V10.434a.331.331,0,0,1,.341-.329h1.476a.335.335,0,0,1,.341.329V23.505c0,2.273-1.262,3.577-3.451,3.577a5.016,5.016,0,0,1-2.681-.72L1.273,24.629A2.408,2.408,0,0,1,.049,22.536V9.3A2.415,2.415,0,0,1,1.273,7.211L12.912.592a2.59,2.59,0,0,1,2.448,0L27.01,7.218A2.408,2.408,0,0,1,28.234,9.31V22.543a2.423,2.423,0,0,1-1.224,2.093L15.359,31.255A2.483,2.483,0,0,1,14.135,31.577Zm9.405-13.046c0-2.478-1.7-3.136-5.28-3.6-3.621-.472-3.987-.714-3.987-1.546,0-.689.309-1.608,2.99-1.608,2.391,0,3.274.509,3.64,2.1a.337.337,0,0,0,.328.261h1.514a.332.332,0,0,0,.246-.106.342.342,0,0,0,.088-.255C22.847,11.036,21,9.764,17.264,9.764c-3.324,0-5.305,1.379-5.305,3.695,0,2.509,1.974,3.2,5.16,3.515,3.816.366,4.113.919,4.113,1.658,0,1.279-1.047,1.826-3.5,1.826-3.085,0-3.76-.764-3.987-2.273a.332.332,0,0,0-.334-.279H11.9a.33.33,0,0,0-.334.329c0,1.931,1.066,4.235,6.169,4.235,3.684-.006,5.8-1.441,5.8-3.937Z" transform="translate(-0.049 -0.285)"/></svg>