<svg xmlns="http://www.w3.org/2000/svg" width="56.9" height="75.382" viewBox="0 0 56.9 75.382"><defs><style>.a{fill:#f13131;}</style></defs><path class="a" d="M9.552,82.474h1.581L39.016,41.217q.547-1.094-.608-1.094H26.9L39.016,18.035c.365-.73.081-1.094-.811-1.094H22.764a1.472,1.472,0,0,0-1.175.73L10.322,47.661c-.081.73.162,1.094.77,1.094H22.237ZM44,56.82H45.1L66.251,25.735a.923.923,0,0,0,.162-.811c-.081-.2-.324-.284-.689-.284H57.213L66.048,8.308q.73-1.216-.729-1.216h-11.1A1.307,1.307,0,0,0,53,7.862l-8.43,22.209a.874.874,0,0,0,.041.851.9.9,0,0,0,.77.284h8.268Z" transform="translate(-9.552 -7.092)"/></svg>