<svg xmlns="http://www.w3.org/2000/svg" width="70" height="70" viewBox="0 0 70 70"><defs><style>.a{fill:#f3f6e4;}</style></defs><path class="a" d="M35,19.291A17.947,17.947,0,1,0,52.946,37.238,17.917,17.917,0,0,0,35,19.291Zm0,29.615A11.668,11.668,0,1,1,46.668,37.238,11.688,11.688,0,0,1,35,48.906ZM57.865,18.556A4.185,4.185,0,1,1,53.68,14.37,4.176,4.176,0,0,1,57.865,18.556Zm11.884,4.249C69.483,17.2,68.2,12.23,64.1,8.138,60,4.046,55.038,2.765,49.432,2.484c-5.778-.328-23.1-.328-28.875,0C14.967,2.749,10,4.03,5.894,8.122S.522,17.182.241,22.789c-.328,5.779-.328,23.1,0,28.881.265,5.607,1.546,10.575,5.653,14.667s9.057,5.373,14.664,5.654c5.778.328,23.1.328,28.875,0C55.038,71.726,60,70.445,64.1,66.337c4.091-4.092,5.372-9.059,5.653-14.667.328-5.779.328-23.086,0-28.865ZM62.284,57.871a11.812,11.812,0,0,1-6.653,6.654C51.025,66.353,40.093,65.931,35,65.931s-16.038.406-20.629-1.406a11.812,11.812,0,0,1-6.653-6.654C5.894,53.264,6.315,42.33,6.315,37.238S5.909,21.2,7.721,16.6A11.812,11.812,0,0,1,14.373,9.95C18.98,8.122,29.912,8.544,35,8.544S51.04,8.138,55.632,9.95A11.812,11.812,0,0,1,62.284,16.6c1.827,4.608,1.405,15.542,1.405,20.634S64.111,53.279,62.284,57.871Z" transform="translate(0.005 -2.238)"/></svg>